<svg width="18" height="22" viewBox="0 0 18 22" fill="none" xmlns="http://www.w3.org/2000/svg">
<path d="M17.3345 2.66664H15.2467V0.644531C15.2467 0.28875 14.9485 0 14.5812 0H4.14463C3.96806 0 3.79902 0.0678906 3.67391 0.188633L0.194765 3.55824C0.0700976 3.67898 0 3.84313 0 4.01414V18.6893C0 19.045 0.298137 19.3338 0.665484 19.3338H2.75333V21.3555C2.75333 21.7113 3.05146 22 3.41881 22H17.3345C17.7019 22 18 21.7113 18 21.3555V3.31074C18 2.95496 17.7019 2.66621 17.3345 2.66664ZM3.4787 2.20086V3.36918H2.2724L3.4787 2.20086ZM1.33097 4.65867L4.14419 4.65824C4.51154 4.65824 4.80967 4.36949 4.80967 4.01371L4.81012 1.28906H13.9162V18.0447H1.33097V4.65867ZM16.669 20.7109H4.08429V19.3338H14.5816C14.949 19.3338 15.2471 19.045 15.2471 18.6893V3.95527H16.6695V20.7109H16.669Z" fill="#6B7185"/>
<path fill-rule="evenodd" clip-rule="evenodd" d="M17.3345 2.7295L15.1831 2.7295V0.644531C15.1831 0.324724 14.9147 0.0628571 14.5812 0.0628571H4.14463C3.98453 0.0628571 3.83148 0.124406 3.71834 0.233567C3.71832 0.233588 3.71836 0.233546 3.71834 0.233567L0.239205 3.60316C0.126625 3.7122 0.0635294 3.8602 0.0635294 4.01414V18.6893C0.0635294 19.0091 0.331937 19.2709 0.665484 19.2709H2.81686V21.3555C2.81686 21.6753 3.08526 21.9371 3.41881 21.9371H17.3345C17.6681 21.9371 17.9365 21.6753 17.9365 21.3555V3.31074C17.9365 2.99092 17.668 2.72911 17.3345 2.7295ZM3.67391 0.188633C3.79902 0.0678906 3.96806 0 4.14463 0H14.5812C14.9485 0 15.2467 0.28875 15.2467 0.644531V2.66664H17.3345C17.7019 2.66621 18 2.95496 18 3.31074V21.3555C18 21.7113 17.7019 22 17.3345 22H3.41881C3.05146 22 2.75333 21.7113 2.75333 21.3555V19.3338H0.665484C0.298137 19.3338 0 19.045 0 18.6893V4.01414C0 3.84313 0.0700976 3.67898 0.194765 3.55824L3.67391 0.188633ZM3.54223 2.05137V3.43204H2.11669L3.54223 2.05137ZM1.26744 4.59582L4.14418 4.59539C4.47773 4.59539 4.74614 4.33352 4.74614 4.01371L4.7466 1.22621H13.9797V18.1076H1.26744V4.59582ZM4.02077 20.7738V19.2709H14.5816C14.9152 19.2709 15.1836 19.0091 15.1836 18.6893V3.89242H16.733V20.7738H4.02077ZM3.4787 2.20086L2.2724 3.36918H3.4787V2.20086ZM4.14419 4.65824C4.51154 4.65824 4.80967 4.36949 4.80967 4.01371L4.81012 1.28906H13.9162V18.0447H1.33097V4.65867L4.14419 4.65824ZM16.669 20.7109L16.6695 3.95527H15.2471V18.6893C15.2471 19.045 14.949 19.3338 14.5816 19.3338H4.08429V20.7109H16.669Z" fill="#6B7185"/>
</svg>
