<svg width="20" height="20" viewBox="0 0 20 20" fill="none" xmlns="http://www.w3.org/2000/svg">
<mask id="path-1-outside-1" maskUnits="userSpaceOnUse" x="1" y="1" width="18" height="18" fill="black">
<rect fill="white" x="1" y="1" width="18" height="18"/>
<path d="M17.8268 16.9906L13.935 13.0988C14.9218 11.9239 15.5172 10.4095 15.5172 8.75862C15.5172 5.03182 12.4853 2 8.75873 2C5.03187 2 2 5.03182 2 8.75862C2 12.4854 5.03187 15.5172 8.75873 15.5172C10.4097 15.5172 11.924 14.9219 13.099 13.9351L16.9909 17.8269C17.1065 17.9425 17.2575 18 17.4087 18C17.56 18 17.7112 17.9422 17.8265 17.8269C18.0578 17.5956 18.0578 17.2213 17.8268 16.9906ZM3.18218 8.75862C3.18218 5.68368 5.68374 3.18248 8.75842 3.18248C11.8331 3.18248 14.3347 5.68399 14.3347 8.75862C14.3347 10.2686 13.7312 11.6401 12.7528 12.6451C12.7328 12.6604 12.7134 12.677 12.695 12.6951C12.6765 12.7135 12.6603 12.7329 12.6447 12.7529C11.6397 13.731 10.2681 14.3344 8.75811 14.3344C5.68374 14.3348 3.18218 11.8332 3.18218 8.75862Z"/>
</mask>
<path d="M17.8268 16.9906L13.935 13.0988C14.9218 11.9239 15.5172 10.4095 15.5172 8.75862C15.5172 5.03182 12.4853 2 8.75873 2C5.03187 2 2 5.03182 2 8.75862C2 12.4854 5.03187 15.5172 8.75873 15.5172C10.4097 15.5172 11.924 14.9219 13.099 13.9351L16.9909 17.8269C17.1065 17.9425 17.2575 18 17.4087 18C17.56 18 17.7112 17.9422 17.8265 17.8269C18.0578 17.5956 18.0578 17.2213 17.8268 16.9906ZM3.18218 8.75862C3.18218 5.68368 5.68374 3.18248 8.75842 3.18248C11.8331 3.18248 14.3347 5.68399 14.3347 8.75862C14.3347 10.2686 13.7312 11.6401 12.7528 12.6451C12.7328 12.6604 12.7134 12.677 12.695 12.6951C12.6765 12.7135 12.6603 12.7329 12.6447 12.7529C11.6397 13.731 10.2681 14.3344 8.75811 14.3344C5.68374 14.3348 3.18218 11.8332 3.18218 8.75862Z" fill="#A8B0CC"/>
<path d="M17.8268 16.9906L13.935 13.0988C14.9218 11.9239 15.5172 10.4095 15.5172 8.75862C15.5172 5.03182 12.4853 2 8.75873 2C5.03187 2 2 5.03182 2 8.75862C2 12.4854 5.03187 15.5172 8.75873 15.5172C10.4097 15.5172 11.924 14.9219 13.099 13.9351L16.9909 17.8269C17.1065 17.9425 17.2575 18 17.4087 18C17.56 18 17.7112 17.9422 17.8265 17.8269C18.0578 17.5956 18.0578 17.2213 17.8268 16.9906ZM3.18218 8.75862C3.18218 5.68368 5.68374 3.18248 8.75842 3.18248C11.8331 3.18248 14.3347 5.68399 14.3347 8.75862C14.3347 10.2686 13.7312 11.6401 12.7528 12.6451C12.7328 12.6604 12.7134 12.677 12.695 12.6951C12.6765 12.7135 12.6603 12.7329 12.6447 12.7529C11.6397 13.731 10.2681 14.3344 8.75811 14.3344C5.68374 14.3348 3.18218 11.8332 3.18218 8.75862Z" stroke="#A8B0CC" stroke-width="0.2" mask="url(#path-1-outside-1)"/>
</svg>
