<svg width="19" height="24" viewBox="0 0 19 24" fill="none" xmlns="http://www.w3.org/2000/svg">
<path d="M11.9977 2.80797C11.6806 1.70595 10.6655 0.9 9.46154 0.9C8.2576 0.9 7.24246 1.70595 6.92586 2.80801C6.82331 3.165 6.54841 3.4386 6.19154 3.54125L6.19148 3.54127C5.72473 3.67585 5.31751 3.94004 4.99738 4.28462H2.69231C1.70261 4.28462 0.9 5.08722 0.9 6.07692V21.3077C0.9 22.2974 1.70261 23.1 2.69231 23.1H2.71508H2.73788H2.7607H2.78353H2.80639H2.82927H2.85217H2.87509H2.89802H2.92098H2.94396H2.96696H2.98998H3.01301H3.03607H3.05915H3.08225H3.10536H3.1285H3.15166H3.17483H3.19803H3.22124H3.24448H3.26773H3.29101H3.3143H3.33761H3.36095H3.3843H3.40767H3.43106H3.45447H3.4779H3.50134H3.52481H3.5483H3.5718H3.59533H3.61887H3.64243H3.66601H3.68961H3.71323H3.73687H3.76052H3.7842H3.80789H3.8316H3.85533H3.87908H3.90285H3.92664H3.95044H3.97427H3.99811H4.02197H4.04585H4.06975H4.09366H4.11759H4.14155H4.16552H4.1895H4.21351H4.23754H4.26158H4.28564H4.30972H4.33381H4.35793H4.38206H4.40621H4.43038H4.45456H4.47877H4.50299H4.52722H4.55148H4.57575H4.60005H4.62435H4.64868H4.67302H4.69739H4.72176H4.74616H4.77057H4.795H4.81945H4.84392H4.8684H4.8929H4.91741H4.94195H4.9665H4.99106H5.01565H5.04025H5.06487H5.0895H5.11415H5.13882H5.16351H5.18821H5.21293H5.23766H5.26241H5.28718H5.31197H5.33677H5.36159H5.38642H5.41127H5.43614H5.46102H5.48592H5.51084H5.53577H5.56072H5.58568H5.61066H5.63566H5.66067H5.6857H5.71074H5.7358H5.76088H5.78597H5.81108H5.8362H5.86134H5.8865H5.91167H5.93686H5.96206H5.98728H6.01251H6.03776H6.06302H6.0883H6.1136H6.13891H6.16423H6.18957H6.21493H6.2403H6.26569H6.29109H6.31651H6.34194H6.36739H6.39285H6.41833H6.44382H6.46933H6.49485H6.52038H6.54594H6.5715H6.59708H6.62268H6.64829H6.67391H6.69955H6.72521H6.75088H6.77656H6.80226H6.82797H6.8537H6.87944H6.90519H6.93096H6.95675H6.98254H7.00836H7.03418H7.06002H7.08588H7.11175H7.13763H7.16352H7.18944H7.21536H7.2413H7.26725H7.29321H7.31919H7.34519H7.37119H7.39721H7.42325H7.4493H7.47536H7.50143H7.52752H7.55362H7.57974H7.60587H7.63201H7.65816H7.68433H7.71051H7.73671H7.76291H7.78913H7.81537H7.84162H7.86788H7.89415H7.92043H7.94673H7.97305H7.99937H8.02571H8.05206H8.07842H8.1048H8.13118H8.15759H8.184H8.21042H8.23686H8.26331H8.28978H8.31625H8.34274H8.36924H8.39575H8.42228H8.44882H8.47537H8.50193H8.5285H8.55509H8.58169H8.6083H8.63492H8.66155H8.6882H8.71486H8.74153H8.76821H8.7949H8.82161H8.84832H8.87505H8.90179H8.92854H8.95531H8.98208H9.00887H9.03567H9.06248H9.0893H9.11613H9.14297H9.16983H9.19669H9.22357H9.25046H9.27736H9.30427H9.33119H9.35812H9.38506H9.41202H9.43898H9.46596H9.49295H9.51995H9.54696H9.57397H9.60101H9.62805H9.6551H9.68216H9.70923H9.73632H9.76341H9.79052H9.81763H9.84476H9.87189H9.89904H9.92619H9.95336H9.98054H10.0077H10.0349H10.0621H10.0893H10.1166H10.1438H10.1711H10.1983H10.2256H10.2529H10.2801H10.3074H10.3348H10.3621H10.3894H10.4167H10.4441H10.4714H10.4988H10.5262H10.5536H10.5809H10.6084H10.6358H10.6632H10.6906H10.7181H10.7455H10.773H10.8004H10.8279H10.8554H10.8829H10.9104H10.9379H10.9654H10.993H11.0205H11.048H11.0756H11.1032H11.1307H11.1583H11.1859H11.2135H11.2411H11.2688H11.2964H11.324H11.3517H11.3793H11.407H11.4346H11.4623H11.49H11.5177H11.5454H11.5731H11.6008H11.6286H11.6563H11.684H11.7118H11.7395H11.7673H11.7951H11.8229H11.8507H11.8785H11.9063H11.9341H11.9619H11.9897H12.0176H12.0454H12.0733H12.1011H12.129H12.1569H12.1847H12.2126H12.2405H12.2684H12.2963H12.3243H12.3522H12.3801H12.4081H12.436H12.464H12.4919H12.5199H12.5479H12.5758H12.6038H12.6318H12.6598H12.6878H12.7159H12.7439H12.7719H12.7999H12.828H12.856H12.8841H12.9122H12.9402H12.9683H12.9964H13.0245H13.0526H13.0807H13.1088H13.1369H13.165H13.1931H13.2213H13.2494H13.2775H13.3057H13.3339H13.362H13.3902H13.4184H13.4465H13.4747H13.5029H13.5311H13.5593H13.5875H13.6157H13.6439H13.6722H13.7004H13.7286H13.7569H13.7851H13.8134H13.8416H13.8699H13.8982H13.9264H13.9547H13.983H14.0113H14.0396H14.0679H14.0962H14.1245H14.1528H14.1811H14.2095H14.2378H14.2661H14.2945H14.3228H14.3511H14.3795H14.4079H14.4362H14.4646H14.493H14.5213H14.5497H14.5781H14.6065H14.6349H14.6633H14.6917H14.7201H14.7485H14.7769H14.8053H14.8337H14.8622H14.8906H14.919H14.9475H14.9759H15.0044H15.0328H15.0613H15.0897H15.1182H15.1467H15.1751H15.2036H15.2321H15.2606H15.289H15.3175H15.346H15.3745H15.403H15.4315H15.46H15.4885H15.517H15.5455H15.5741H15.6026H15.6311H15.6596H15.6882H15.7167H15.7452H15.7738H15.8023H15.8309H15.8594H15.888H15.9165H15.9451H15.9736H16.0022H16.0307H16.0593H16.0879H16.1165H16.145H16.1736H16.2022H16.2308C17.2205 23.1 18.0231 22.2974 18.0231 21.3077V21.2795V21.2514V21.2232V21.1951V21.1669V21.1388V21.1107V21.0825V21.0544V21.0263V20.9982V20.9701V20.942V20.9139V20.8858V20.8577V20.8296V20.8015V20.7734V20.7453V20.7172V20.6892V20.6611V20.633V20.605V20.5769V20.5488V20.5208V20.4927V20.4647V20.4366V20.4086V20.3805V20.3525V20.3245V20.2964V20.2684V20.2404V20.2123V20.1843V20.1563V20.1283V20.1002V20.0722V20.0442V20.0162V19.9882V19.9602V19.9322V19.9042V19.8761V19.8481V19.8201V19.7921V19.7641V19.7361V19.7081V19.6801V19.6521V19.6241V19.5962V19.5682V19.5402V19.5122V19.4842V19.4562V19.4282V19.4002V19.3722V19.3442V19.3162V19.2882V19.2603V19.2323V19.2043V19.1763V19.1483V19.1203V19.0923V19.0643V19.0363V19.0083V18.9804V18.9524V18.9244V18.8964V18.8684V18.8404V18.8124V18.7844V18.7564V18.7284V18.7004V18.6724V18.6444V18.6164V18.5884V18.5604V18.5323V18.5043V18.4763V18.4483V18.4203V18.3923V18.3643V18.3362V18.3082V18.2802V18.2521V18.2241V18.1961V18.168V18.14V18.112V18.0839V18.0559V18.0278V17.9998V17.9717V17.9437V17.9156V17.8875V17.8595V17.8314V17.8033V17.7753V17.7472V17.7191V17.691V17.6629V17.6348V17.6067V17.5786V17.5505V17.5224V17.4943V17.4662V17.4381V17.4099V17.3818V17.3537V17.3255V17.2974V17.2692V17.2411V17.2129V17.1848V17.1566V17.1284V17.1003V17.0721V17.0439V17.0157V16.9875V16.9593V16.9311V16.9029V16.8747V16.8465V16.8182V16.79V16.7618V16.7335V16.7053V16.677V16.6488V16.6205V16.5922V16.564V16.5357V16.5074V16.4791V16.4508V16.4225V16.3942V16.3658V16.3375V16.3092V16.2808V16.2525V16.2241V16.1958V16.1674V16.139V16.1106V16.0823V16.0539V16.0254V15.997V15.9686V15.9402V15.9118V15.8833V15.8549V15.8264V15.7979V15.7695V15.741V15.7125V15.684V15.6555V15.627V15.5985V15.5699V15.5414V15.5129V15.4843V15.4557V15.4272V15.3986V15.37V15.3414V15.3128V15.2842V15.2556V15.2269V15.1983V15.1696V15.141V15.1123V15.0836V15.0549V15.0262V14.9975V14.9688V14.9401V14.9113V14.8826V14.8538V14.8251V14.7963V14.7675V14.7387V14.7099V14.6811V14.6523V14.6234V14.5946V14.5657V14.5369V14.508V14.4791V14.4502V14.4213V14.3924V14.3634V14.3345V14.3055V14.2766V14.2476V14.2186V14.1896V14.1606V14.1316V14.1025V14.0735V14.0444V14.0153V13.9863V13.9572V13.9281V13.899V13.8698V13.8407V13.8115V13.7824V13.7532V13.724V13.6948V13.6656V13.6364V13.6071V13.5779V13.5486V13.5193V13.49V13.4607V13.4314V13.4021V13.3727V13.3434V13.314V13.2846V13.2552V13.2258V13.1964V13.167V13.1375V13.108V13.0786V13.0491V13.0196V12.9901V12.9605V12.931V12.9014V12.8718V12.8422V12.8126V12.783V12.7534V12.7237V12.6941V12.6644V12.6347V12.605V12.5753V12.5456V12.5158V12.486V12.4563V12.4265V12.3967V12.3668V12.337V12.3071V12.2773V12.2474V12.2175V12.1875V12.1576V12.1277V12.0977V12.0677V12.0377V12.0077V11.9777V11.9476V11.9176V11.8875V11.8574V11.8273V11.7971V11.767V11.7368V11.7067V11.6765V11.6463V11.616V11.5858V11.5555V11.5252V11.4949V11.4646V11.4343V11.404V11.3736V11.3432V11.3128V11.2824V11.2519V11.2215V11.191V11.1605V11.13V11.0995V11.069V11.0384V11.0078V10.9772V10.9466V10.916V10.8853V10.8547V10.824V10.7933V10.7625V10.7318V10.701V10.6702V10.6394V10.6086V10.5778V10.5469V10.516V10.4851V10.4542V10.4233V10.3923V10.3614V10.3304V10.2994V10.2683V10.2373V10.2062V10.1751V10.144V10.1129V10.0817V10.0505V10.0193V9.98813V9.9569V9.92565V9.89437V9.86308V9.83176V9.80043V9.76907V9.7377V9.7063V9.67488V9.64344V9.61198V9.5805V9.549V9.51747V9.48593V9.45436V9.42277V9.39116V9.35953V9.32788V9.29621V9.26451V9.23279V9.20105V9.16929V9.13751V9.1057V9.07388V9.04203V9.01016V8.97826V8.94635V8.91441V8.88245V8.85046V8.81846V8.78643V8.75438V8.7223V8.69021V8.65809V8.62594V8.59378V8.56159V8.52938V8.49714V8.46488V8.4326V8.40029V8.36796V8.33561V8.30324V8.27084V8.23841V8.20597V8.17349V8.141V8.10848V8.07594V8.04337V8.01078V7.97816V7.94552V7.91286V7.88017V7.84746V7.81472V7.78196V7.74917V7.71636V7.68352V7.65066V7.61777V7.58486V7.55192V7.51896V7.48597V7.45296V7.41992V7.38686V7.35377V7.32066V7.28752V7.25435V7.22116V7.18795V7.1547V7.12144V7.08814V7.05482V7.02147V6.9881V6.9547V6.92128V6.88783V6.85435V6.82084V6.78731V6.75376V6.72017V6.68656V6.65292V6.61926V6.58557V6.55185V6.5181V6.48433V6.45053V6.4167V6.38285V6.34897V6.31506V6.28112V6.24716V6.21317V6.17915V6.1451V6.11103V6.07692C18.0231 5.08722 17.2205 4.28462 16.2308 4.28462H13.9257C13.6051 3.94008 13.1979 3.67534 12.7311 3.54074L12.731 3.54072C12.3743 3.43812 12.1003 3.16413 11.9977 2.80797ZM11.9977 2.80797L11.9016 2.83562L11.9977 2.80797ZM13.5923 6.82308V6.07692C13.5923 5.37099 13.1188 4.74127 12.4415 4.5463C11.7367 4.34376 11.1947 3.80175 10.9922 3.09703L13.5923 6.82308ZM13.5923 6.82308H5.33077V6.06359C5.3364 5.36382 5.80944 4.73968 6.48062 4.54628C7.18579 4.34321 7.72834 3.80072 7.9309 3.09652C8.12584 2.41969 8.75557 1.94615 9.46154 1.94615C10.1675 1.94615 10.7972 2.41966 10.9922 3.097L13.5923 6.82308ZM14.6385 6.07692C14.6385 5.81763 14.6 5.56737 14.53 5.33077H16.2308C16.642 5.33077 16.9769 5.66571 16.9769 6.07692V6.0912V6.10568V6.12036V6.13524V6.15033V6.16561V6.18109V6.19678V6.21266V6.22873V6.245V6.26147V6.27813V6.29499V6.31204V6.32927V6.3467V6.36432V6.38213V6.40013V6.41831V6.43669V6.45524V6.47398V6.49291V6.51202V6.53131V6.55079V6.57044V6.59027V6.61029V6.63048V6.65085V6.67139V6.69211V6.71301V6.73408V6.75532V6.77674V6.79833V6.82008V6.84201V6.86411V6.88637V6.9088V6.9314V6.95417V6.97709V7.00019V7.02344V7.04686V7.07044V7.09418V7.11808V7.14214V7.16636V7.19073V7.21526V7.23995V7.26479V7.28978V7.31493V7.34023V7.36568V7.39128V7.41703V7.44293V7.46898V7.49517V7.52152V7.548V7.57463V7.60141V7.62833V7.65539V7.68259V7.70993V7.73741V7.76503V7.79279V7.82068V7.84872V7.87688V7.90518V7.93362V7.96219V7.99089V8.01972V8.04868V8.07777V8.10699V8.13633V8.16581V8.19541V8.22513V8.25498V8.28496V8.31505V8.34527V8.37561V8.40607V8.43665V8.46735V8.49816V8.52909V8.56014V8.5913V8.62258V8.65397V8.68547V8.71709V8.74882V8.78065V8.8126V8.84465V8.87682V8.90908V8.94146V8.97394V9.00652V9.03921V9.072V9.10489V9.13789V9.17098V9.20417V9.23746V9.27085V9.30433V9.33791V9.37159V9.40536V9.43922V9.47318V9.50722V9.54136V9.57559V9.60991V9.64431V9.67881V9.71338V9.74805V9.7828V9.81763V9.85255V9.88755V9.92263V9.9578V9.99304V10.0284V10.0638V10.0992V10.1348V10.1704V10.2061V10.2419V10.2778V10.3137V10.3497V10.3857V10.4219V10.4581V10.4943V10.5307V10.5671V10.6036V10.6401V10.6767V10.7134V10.7501V10.7869V10.8237V10.8606V10.8976V10.9346V10.9717V11.0088V11.046V11.0833V11.1206V11.1579V11.1953V11.2328V11.2703V11.3079V11.3455V11.3831V11.4208V11.4586V11.4964V11.5342V11.5721V11.61V11.648V11.686V11.724V11.7621V11.8003V11.8384V11.8766V11.9149V11.9531V11.9914V12.0298V12.0682V12.1066V12.145V12.1835V12.222V12.2605V12.299V12.3376V12.3762V12.4149V12.4535V12.4922V12.5309V12.5696V12.6084V12.6471V12.6859V12.7247V12.7636V12.8024V12.8412V12.8801V12.919V12.9579V12.9968V13.0357V13.0747V13.1136V13.1526V13.1915V13.2305V13.2695V13.3084V13.3474V13.3864V13.4254V13.4644V13.5034V13.5424V13.5814V13.6204V13.6594V13.6984V13.7374V13.7764V13.8153V13.8543V13.8933V13.9323V13.9712V14.0101V14.0491V14.088V14.1269V14.1658V14.2047V14.2436V14.2824V14.3213V14.3601V14.3989V14.4377V14.4764V14.5152V14.5539V14.5926V14.6313V14.67V14.7086V14.7472V14.7858V14.8243V14.8629V14.9014V14.9398V14.9783V15.0167V15.0551V15.0934V15.1317V15.17V15.2082V15.2465V15.2846V15.3228V15.3608V15.3989V15.4369V15.4749V15.5128V15.5507V15.5885V15.6263V15.6641V15.7018V15.7395V15.7771V15.8146V15.8521V15.8896V15.927V15.9644V16.0017V16.0389V16.0761V16.1133V16.1504V16.1874V16.2244V16.2613V16.2981V16.3349V16.3717V16.4083V16.4449V16.4815V16.5179V16.5544V16.5907V16.627V16.6632V16.6993V16.7354V16.7714V16.8073V16.8432V16.879V16.9147V16.9503V16.9859V17.0214V17.0568V17.0921V17.1274V17.1625V17.1976V17.2326V17.2675V17.3024V17.3371V17.3718V17.4064V17.4409V17.4753V17.5096V17.5439V17.578V17.6121V17.6461V17.6799V17.7137V17.7474V17.781V17.8145V17.8479V17.8812V17.9144V17.9475V17.9805V18.0134V18.0462V18.0789V18.1115V18.1439V18.1763V18.2086V18.2408V18.2729V18.3048V18.3367V18.3684V18.4V18.4315V18.4629V18.4942V18.5254V18.5564V18.5874V18.6182V18.6489V18.6795V18.71V18.7403V18.7706V18.8007V18.8307V18.8605V18.8903V18.9199V18.9494V18.9787V19.0079V19.037V19.066V19.0949V19.1236V19.1522V19.1806V19.2089V19.2371V19.2651V19.293V19.3208V19.3484V19.3759V19.4033V19.4305V19.4576V19.4845V19.5113V19.538V19.5645V19.5908V19.617V19.6431V19.669V19.6948V19.7204V19.7458V19.7711V19.7963V19.8213V19.8462V19.8709V19.8954V19.9198V19.944V19.9681V19.992V20.0158V20.0394V20.0628V20.0861V20.1092V20.1321V20.1549V20.1775V20.2V20.2223V20.2444V20.2663V20.2881V20.3097V20.3311V20.3524V20.3735V20.3944V20.4151V20.4357V20.4561V20.4763V20.4963V20.5161V20.5358V20.5553V20.5746V20.5937V20.6127V20.6314V20.65V20.6684V20.6866V20.7046V20.7224V20.7401V20.7575V20.7748V20.7919V20.8087V20.8254V20.8419V20.8582V20.8743V20.8902V20.9059V20.9214V20.9367V20.9518V20.9667V20.9814V20.9959V21.0102V21.0243V21.0382V21.0518V21.0653V21.0786V21.0916V21.1045V21.1171V21.1295V21.1417V21.1538V21.1655V21.1771V21.1885V21.1996V21.2105V21.2213V21.2317V21.242V21.2521V21.2619V21.2715V21.2809V21.29V21.299V21.3077C16.9769 21.7189 16.642 22.0538 16.2308 22.0538H16.2043H16.1778H16.1513H16.1248H16.0984H16.0719H16.0454H16.0189H15.9924H15.966H15.9395H15.913H15.8865H15.86H15.8336H15.8071H15.7806H15.7541H15.7277H15.7012H15.6747H15.6482H15.6217H15.5953H15.5688H15.5423H15.5158H15.4894H15.4629H15.4364H15.4099H15.3834H15.357H15.3305H15.304H15.2775H15.2511H15.2246H15.1981H15.1716H15.1452H15.1187H15.0922H15.0658H15.0393H15.0128H14.9863H14.9599H14.9334H14.9069H14.8804H14.854H14.8275H14.801H14.7746H14.7481H14.7216H14.6951H14.6687H14.6422H14.6157H14.5893H14.5628H14.5363H14.5098H14.4834H14.4569H14.4304H14.404H14.3775H14.351H14.3246H14.2981H14.2716H14.2451H14.2187H14.1922H14.1657H14.1393H14.1128H14.0863H14.0599H14.0334H14.0069H13.9805H13.954H13.9275H13.9011H13.8746H13.8481H13.8217H13.7952H13.7687H13.7423H13.7158H13.6894H13.6629H13.6364H13.61H13.5835H13.557H13.5306H13.5041H13.4776H13.4512H13.4247H13.3982H13.3718H13.3453H13.3189H13.2924H13.2659H13.2395H13.213H13.1865H13.1601H13.1336H13.1072H13.0807H13.0542H13.0278H13.0013H12.9749H12.9484H12.9219H12.8955H12.869H12.8426H12.8161H12.7896H12.7632H12.7367H12.7103H12.6838H12.6573H12.6309H12.6044H12.578H12.5515H12.5251H12.4986H12.4721H12.4457H12.4192H12.3928H12.3663H12.3399H12.3134H12.2869H12.2605H12.234H12.2076H12.1811H12.1547H12.1282H12.1017H12.0753H12.0488H12.0224H11.9959H11.9695H11.943H11.9166H11.8901H11.8637H11.8372H11.8108H11.7843H11.7578H11.7314H11.7049H11.6785H11.652H11.6256H11.5991H11.5727H11.5462H11.5198H11.4933H11.4669H11.4404H11.414H11.3875H11.3611H11.3346H11.3082H11.2817H11.2553H11.2288H11.2024H11.1759H11.1495H11.123H11.0966H11.0701H11.0437H11.0172H10.9908H10.9643H10.9379H10.9114H10.885H10.8585H10.8321H10.8056H10.7792H10.7527H10.7263H10.6998H10.6734H10.6469H10.6205H10.594H10.5676H10.5412H10.5147H10.4883H10.4618H10.4354H10.4089H10.3825H10.356H10.3296H10.3031H10.2767H10.2503H10.2238H10.1974H10.1709H10.1445H10.118H10.0916H10.0651H10.0387H10.0123H9.98581H9.95937H9.93293H9.90648H9.88004H9.8536H9.82716H9.80071H9.77427H9.74783H9.72139H9.69495H9.6685H9.64206H9.61562H9.58918H9.56274H9.5363H9.50986H9.48342H9.45698H9.43054H9.4041H9.37766H9.35122H9.32478H9.29834H9.2719H9.24546H9.21902H9.19258H9.16614H9.1397H9.11326H9.08682H9.06038H9.03395H9.00751H8.98107H8.95463H8.92819H8.90176H8.87532H8.84888H8.82244H8.79601H8.76957H8.74313H8.7167H8.69026H8.66382H8.63739H8.61095H8.58451H8.55808H8.53164H8.50521H8.47877H8.45234H8.4259H8.39947H8.37303H8.3466H8.32016H8.29373H8.26729H8.24086H8.21442H8.18799H8.16156H8.13512H8.10869H8.08225H8.05582H8.02939H8.00295H7.97652H7.95009H7.92366H7.89722H7.87079H7.84436H7.81793H7.79149H7.76506H7.73863H7.7122H7.68577H7.65934H7.6329H7.60647H7.58004H7.55361H7.52718H7.50075H7.47432H7.44789H7.42146H7.39503H7.3686H7.34217H7.31574H7.28931H7.26288H7.23645H7.21002H7.18359H7.15716H7.13073H7.1043H7.07788H7.05145H7.02502H6.99859H6.97216H6.94573H6.91931H6.89288H6.86645H6.84002H6.81359H6.78717H6.76074H6.73431H6.70789H6.68146H6.65503H6.62861H6.60218H6.57575H6.54933H6.5229H6.49647H6.47005H6.44362H6.4172H6.39077H6.36435H6.33792H6.3115H6.28507H6.25865H6.23222H6.2058H6.17937H6.15295H6.12652H6.1001H6.07368H6.04725H6.02083H5.9944H5.96798H5.94156H5.91513H5.88871H5.86229H5.83586H5.80944H5.78302H5.7566H5.73017H5.70375H5.67733H5.65091H5.62448H5.59806H5.57164H5.54522H5.5188H5.49237H5.46595H5.43953H5.41311H5.38669H5.36027H5.33385H5.30743H5.28101H5.25459H5.22817H5.20175H5.17532H5.1489H5.12248H5.09607H5.06965H5.04323H5.01681H4.99039H4.96397H4.93755H4.91113H4.88471H4.85829H4.83187H4.80545H4.77904H4.75262H4.7262H4.69978H4.67336H4.64694H4.62053H4.59411H4.56769H4.54127H4.51486H4.48844H4.46202H4.43561H4.40919H4.38277H4.35635H4.32994H4.30352H4.2771H4.25069H4.22427H4.19786H4.17144H4.14502H4.11861H4.09219H4.06578H4.03936H4.01295H3.98653H3.96012H3.9337H3.90729H3.88087H3.85446H3.82804H3.80163H3.77521H3.7488H3.72238H3.69597H3.66956H3.64314H3.61673H3.59031H3.5639H3.53749H3.51107H3.48466H3.45825H3.43183H3.40542H3.37901H3.3526H3.32618H3.29977H3.27336H3.24695H3.22053H3.19412H3.16771H3.1413H3.11488H3.08847H3.06206H3.03565H3.00924H2.98283H2.95642H2.93H2.90359H2.87718H2.85077H2.82436H2.79795H2.77154H2.74513H2.71872H2.69231C2.28109 22.0538 1.94615 21.7189 1.94615 21.3077V6.07692C1.94615 5.66571 2.28109 5.33077 2.69231 5.33077H4.39201C4.32408 5.5609 4.28646 5.8041 4.28462 6.0561V6.05683V7.76923V7.86923H4.38461H14.5385H14.6385V7.76923V6.07692Z" fill="#6B7185" stroke="#6B7185" stroke-width="0.2"/>
<path d="M12.5734 10.4317L12.5735 10.4315C12.7975 10.2082 13.1601 10.208 13.3838 10.4324L12.5734 10.4317ZM12.5734 10.4317L7.89284 15.1122L6.05646 13.2758C5.83288 13.0522 5.46978 13.0522 5.2462 13.2758C5.02262 13.4994 5.02262 13.8625 5.24619 14.0861C5.24619 14.0861 5.2462 14.0861 5.2462 14.0861L7.78677 16.6272L7.89283 16.7333M12.5734 10.4317L7.89283 16.7333M7.89283 16.7333L7.99891 16.6272M7.89283 16.7333L7.99891 16.6272M7.99891 16.6272L13.3836 11.2425M7.99891 16.6272L13.3836 11.2425M13.3836 11.2425C13.6071 11.0189 13.6072 10.656 13.3838 10.4324L13.3836 11.2425Z" fill="#6B7185" stroke="#6B7185" stroke-width="0.3"/>
</svg>
