<svg width="20" height="20" viewBox="0 0 20 20" fill="none" xmlns="http://www.w3.org/2000/svg">
<path d="M10.0769 2C5.62294 2 2 5.62294 2 10.0769C2 14.5309 5.62294 18.1538 10.0769 18.1538C14.5309 18.1538 18.1538 14.5303 18.1538 10.0769C18.1538 5.62357 14.5309 2 10.0769 2ZM10.0769 16.9026C6.3139 16.9026 3.25129 13.8409 3.25129 10.0769C3.25129 6.31295 6.3139 3.25129 10.0769 3.25129C13.8399 3.25129 16.9026 6.31327 16.9026 10.0769C16.9026 13.8406 13.8409 16.9026 10.0769 16.9026Z" fill="#767C90"/>
<path d="M13.2051 9.39508H10.7025V6.89249C10.7025 6.54701 10.423 6.26685 10.0769 6.26685C9.73077 6.26685 9.45123 6.54701 9.45123 6.89249V9.39508H6.94864C6.60254 9.39508 6.323 9.67525 6.323 10.0207C6.323 10.3662 6.60254 10.6464 6.94864 10.6464H9.45123V13.149C9.45123 13.4944 9.73077 13.7746 10.0769 13.7746C10.423 13.7746 10.7025 13.4944 10.7025 13.149V10.6464H13.2051C13.5512 10.6464 13.8308 10.3662 13.8308 10.0207C13.8308 9.67525 13.5509 9.39508 13.2051 9.39508Z" fill="#767C90"/>
</svg>
