<svg width="18" height="22" viewBox="0 0 18 22" fill="none" xmlns="http://www.w3.org/2000/svg">
<path d="M16.2039 4.42965V1.28906H16.7187C17.0843 1.28906 17.381 1.00031 17.381 0.644531C17.381 0.28875 17.0843 0 16.7187 0H3.20659C1.77996 0 0.619141 1.12793 0.619141 2.51453V20.2907C0.619141 21.233 1.40818 22 2.37781 22H15.7323C16.6415 22 17.381 21.2811 17.381 20.3977V5.8459C17.381 5.15152 16.8759 4.56973 16.2039 4.42965ZM1.94377 2.51453C1.94377 1.83863 2.51027 1.28906 3.20659 1.28906H14.8793V4.39699H3.20659C2.51027 4.39699 1.94377 3.84742 1.94377 3.17152V2.51453ZM16.0564 20.3977C16.0564 20.5704 15.9111 20.7109 15.7323 20.7109H2.37781C2.13849 20.7109 1.94377 20.5223 1.94377 20.2907V5.36594C2.31732 5.57004 2.74827 5.68648 3.20659 5.68648H15.8908C15.9822 5.68648 16.0564 5.75824 16.0564 5.8459V20.3977Z" fill="#6B7185"/>
<path d="M10.3641 9.32826C10.3044 9.15076 9.97058 8.77393 9.22639 8.77393C8.3842 8.77393 8.14841 9.15076 8.08873 9.32826L6.01456 15.8309C5.95414 16.0732 6.1133 16.293 6.35497 16.4282C6.59665 16.5634 6.84717 16.6311 7.10801 16.6311C7.42779 16.6311 7.61716 16.5282 7.67684 16.3219L8.05631 14.9892H10.409L10.7885 16.3219C10.8481 16.5282 11.0375 16.6311 11.3573 16.6311C11.6174 16.6311 11.8687 16.5634 12.1103 16.4282C12.352 16.293 12.5023 16.0401 12.4507 15.8309L10.3641 9.32826ZM8.4122 13.7094L9.22639 10.8525L10.0406 13.7094H8.4122Z" fill="#6B7185"/>
</svg>
