<svg width="24" height="21" viewBox="0 0 24 21" fill="none" xmlns="http://www.w3.org/2000/svg">
<path d="M12.0006 8.03747C9.79508 8.03747 8.00049 6.23451 8.00049 4.01874C8.00049 1.80296 9.79508 0 12.0006 0C14.2061 0 16.0006 1.80296 16.0006 4.01874C16.0006 6.23451 14.2061 8.03747 12.0006 8.03747ZM12.0006 1.18897C10.4474 1.18897 9.18394 2.45832 9.18394 4.01874C9.18394 5.57915 10.4474 6.8485 12.0006 6.8485C13.5537 6.8485 14.8172 5.57915 14.8172 4.01874C14.8172 2.45832 13.5537 1.18897 12.0006 1.18897Z" fill="#6B7185"/>
<path d="M20.3319 8.03764C18.9615 8.03764 17.8467 6.91763 17.8467 5.54079C17.8467 4.16396 18.9615 3.04395 20.3319 3.04395C21.7024 3.04395 22.8172 4.16396 22.8172 5.54079C22.8172 6.91763 21.7024 8.03764 20.3319 8.03764ZM20.3319 4.23292C19.6143 4.23292 19.0301 4.8198 19.0301 5.54079C19.0301 6.26179 19.6143 6.84867 20.3319 6.84867C21.0496 6.84867 21.6337 6.26179 21.6337 5.54079C21.6337 4.8198 21.0496 4.23292 20.3319 4.23292Z" fill="#6B7185"/>
<path d="M7.26736 20.3078C6.47539 20.3078 5.80177 19.6872 5.73408 18.8948L5.72461 18.7859H1.27387C0.571372 18.7859 0 18.2142 0 17.5113V12.3174C0 10.6129 1.3889 9.22655 3.09592 9.22655H4.19417C5.39798 9.22655 6.5019 9.93423 7.00748 11.029L7.08227 11.1907L7.20204 11.059C8.26431 9.89428 9.77203 9.22607 11.3384 9.22607H12.662C14.2289 9.22607 15.7366 9.89428 16.7984 11.059L16.9182 11.1907L16.993 11.029C17.4981 9.93423 18.6025 9.22655 19.8058 9.22655H20.9041C22.6111 9.22655 24 10.6129 24 12.3174V17.4619C24 18.1919 23.4064 18.7859 22.6764 18.7859H18.2754L18.2659 18.8948C18.1982 19.6872 17.5246 20.3078 16.7326 20.3078H7.26736ZM11.3384 10.4155C8.89722 10.4155 6.91138 12.4106 6.91138 14.8632V18.7612C6.91138 18.9585 7.07091 19.1188 7.26736 19.1188H16.7331C16.9296 19.1188 17.0891 18.9585 17.0891 18.7612V14.8632C17.0891 12.4106 15.1033 10.4155 12.662 10.4155H11.3384ZM19.8063 10.4155C18.7516 10.4155 17.8938 11.2687 17.8938 12.3174V12.8277L17.9019 12.8482C18.2939 13.8735 18.2896 14.5389 18.2778 16.3166C18.2754 16.6557 18.273 17.0395 18.273 17.4776V17.5965H18.3914C19.5748 17.5965 20.4345 17.5969 21.0579 17.5974C21.0579 17.5974 21.6998 17.5979 21.911 17.5979C22.2816 17.5979 22.4667 17.5974 22.5704 17.596C22.719 17.5941 22.7692 17.5931 22.8057 17.5256L22.8393 17.4638L22.8175 17.4286V12.3174C22.8175 11.2687 21.9597 10.4155 20.905 10.4155H19.8063ZM3.09592 10.4155C2.04122 10.4155 1.18346 11.2687 1.18346 12.3174V17.5969H5.72792V17.478C5.72792 17.0405 5.72508 16.6581 5.72319 16.3209C5.71136 14.5408 5.70662 13.875 6.09906 12.8486L6.1071 12.8282V12.3179C6.1071 11.2692 5.24933 10.416 4.19464 10.416H3.09592V10.4155Z" fill="#6B7185"/>
<path d="M3.66885 8.03764C2.29841 8.03764 1.18359 6.91763 1.18359 5.54079C1.18359 4.16396 2.29841 3.04395 3.66885 3.04395C5.03929 3.04395 6.15411 4.16396 6.15411 5.54079C6.15411 6.91763 5.03929 8.03764 3.66885 8.03764ZM3.66885 4.23292C2.9512 4.23292 2.36705 4.8198 2.36705 5.54079C2.36705 6.26179 2.9512 6.84867 3.66885 6.84867C4.3865 6.84867 4.97065 6.26179 4.97065 5.54079C4.97065 4.8198 4.3865 4.23292 3.66885 4.23292Z" fill="#6B7185"/>
</svg>
