<svg width="22" height="22" viewBox="0 0 22 22" fill="none" xmlns="http://www.w3.org/2000/svg">
<path d="M11 22C4.93453 22 0 17.0655 0 11C0 4.93453 4.93453 0 11 0C17.0655 0 22 4.93453 22 11C22 17.0655 17.0655 22 11 22ZM11 1.375C5.6925 1.375 1.375 5.6925 1.375 11C1.375 16.3075 5.6925 20.625 11 20.625C16.3075 20.625 20.625 16.3075 20.625 11C20.625 5.6925 16.3075 1.375 11 1.375Z" fill="#6B7185"/>
<path d="M16.1563 15.125C15.777 15.125 15.4688 14.8168 15.4688 14.4375V12.7188C15.4688 10.6035 13.9654 8.76219 11.8938 8.33995L11.6875 8.29812V12.7188C11.6875 13.098 11.3793 13.4062 11 13.4062C10.6207 13.4062 10.3125 13.098 10.3125 12.7188V8.29755L10.1063 8.33938C8.03458 8.76219 6.53125 10.6035 6.53125 12.7188V14.4375C6.53125 14.8168 6.22302 15.125 5.84375 15.125C5.46448 15.125 5.15625 14.8168 5.15625 14.4375V12.7188C5.15625 11.3065 5.66901 9.9424 6.6 8.87734C7.5224 7.8226 8.78854 7.13281 10.1653 6.93458L10.3125 6.91339V5.84375C10.3125 5.46448 10.6207 5.15625 11 5.15625C11.3793 5.15625 11.6875 5.46448 11.6875 5.84375V6.91339L11.8347 6.93458C13.2115 7.13224 14.4776 7.8226 15.3994 8.87734C16.3304 9.9424 16.8432 11.3065 16.8432 12.7188V14.4375C16.8438 14.8168 16.5355 15.125 16.1563 15.125Z" fill="#6B7185"/>
</svg>
