<svg width="22" height="20" viewBox="0 0 22 20" fill="none" xmlns="http://www.w3.org/2000/svg">
<path d="M5.39201 18.8152H1.62823V13.6296H5.39201V18.8152ZM12.92 18.8152H9.15579V7.40713H12.92V18.8152ZM20.4476 18.8152H16.6838V1.18463H20.4476V18.8152ZM21.3888 18.8152V1.18463C21.3888 0.613421 20.9663 0.147705 20.4476 0.147705H16.6838C16.1664 0.147705 15.743 0.614393 15.743 1.18463V18.8152H13.8608V7.40713C13.8608 6.8369 13.4374 6.37021 12.92 6.37021H9.15579C8.6384 6.37021 8.21496 6.8369 8.21496 7.40713V18.8152H6.33285V13.6296C6.33285 13.0594 5.9094 12.5927 5.39201 12.5927H1.62823C1.10951 12.5927 0.686955 13.0584 0.686955 13.6296V18.8152H0.216759H0.215876C0.178384 18.8152 0.147949 18.8488 0.147949 18.8901V19.7763C0.147949 19.8181 0.178825 19.8521 0.216759 19.8521H21.7973C21.8273 19.8521 21.852 19.8254 21.852 19.7919V18.875C21.852 18.842 21.8277 18.8147 21.7973 18.8147H21.3888V18.8152Z" fill="#6B7185"/>
<path fill-rule="evenodd" clip-rule="evenodd" d="M21.3889 18.8148H21.7973C21.8278 18.8148 21.852 18.842 21.852 18.8751V19.7919C21.852 19.8255 21.8273 19.8522 21.7973 19.8522H0.216791C0.178858 19.8522 0.147982 19.8182 0.147982 19.7764V18.8902C0.147982 18.8488 0.178417 18.8153 0.215909 18.8153H0.686988V13.6297C0.686988 13.0585 1.10955 12.5928 1.62826 12.5928H5.39204C5.90944 12.5928 6.33288 13.0595 6.33288 13.6297V18.8153H8.21499V7.40721C8.21499 6.83698 8.63843 6.37029 9.15582 6.37029H12.92C13.4374 6.37029 13.8609 6.83698 13.8609 7.40721V18.8153H15.743V1.18471C15.743 0.614471 16.1664 0.147783 16.6838 0.147783H20.4476C20.9663 0.147783 21.3889 0.613499 21.3889 1.18471V18.8148ZM15.595 18.6675V1.18471C15.595 0.546899 16.0713 0 16.6838 0H20.4476C21.0614 0 21.5369 0.545879 21.5369 1.18471V18.667H21.7973C21.9236 18.667 22 18.7753 22 18.8751V19.7919C22 19.8939 21.9217 20 21.7973 20H0.216791C0.083742 20 0 19.8858 0 19.7764V18.8902C0 18.7813 0.0833003 18.6675 0.215909 18.6675H0.539006V13.6297C0.539006 12.9909 1.01447 12.445 1.62826 12.445H5.39204C6.00455 12.445 6.48086 12.9919 6.48086 13.6297V18.6675H8.06701V7.40721C8.06701 6.7694 8.54331 6.2225 9.15582 6.2225H12.92C13.5326 6.2225 14.0089 6.7694 14.0089 7.40721V18.6675H15.595ZM1.77625 18.6675H5.24406V13.7775H1.77625V18.6675ZM9.30381 18.6675H12.7721V7.55499H9.30381V18.6675ZM16.8318 18.6675H20.2996V1.33249H16.8318V18.6675ZM5.39204 18.8153V13.6297H1.62826V18.8153H5.39204ZM12.92 18.8153V7.40721H9.15582V18.8153H12.92ZM20.4476 18.8153V1.18471H16.6838V18.8153H20.4476Z" fill="#6B7185"/>
</svg>
