<svg width="21" height="22" viewBox="0 0 21 22" fill="none" xmlns="http://www.w3.org/2000/svg">
<path d="M20.2888 22C19.9195 22 19.6172 21.707 19.5856 21.3187C19.3932 18.953 18.3622 16.7574 16.6817 15.137C14.9912 13.5065 12.7961 12.6087 10.4997 12.6087C8.2034 12.6087 6.00783 13.5065 4.31774 15.1365C2.63723 16.7574 1.60586 18.9526 1.41391 21.3183C1.38226 21.707 1.07997 22 0.710641 22H0.704812C0.505782 22 0.322159 21.9157 0.187668 21.763C0.0535937 21.6109 -0.0138599 21.4043 0.00237894 21.197C0.105225 19.9078 0.420008 18.6643 0.937568 17.5009C1.45638 16.3339 2.16755 15.2743 3.0507 14.3522C4.19533 13.157 5.5419 12.2748 7.05377 11.7304L7.28736 11.6461L7.08375 11.4996C5.44197 10.3191 4.46223 8.37696 4.46223 6.30435C4.46223 4.63739 5.0818 3.06478 6.20686 1.87609C7.33067 0.687826 8.82714 0.0221739 10.4206 0.000434783C10.4469 0 10.4727 0 10.4989 0C13.7916 0 16.5002 2.79609 16.5368 6.23261C16.5593 8.33391 15.5792 10.303 13.9157 11.4996L13.7121 11.6461L13.9461 11.7304C15.458 12.2752 16.8046 13.1574 17.9492 14.3522C18.8323 15.2748 19.5435 16.3339 20.0623 17.5009C20.5799 18.6643 20.8942 19.9078 20.9975 21.197C21.0142 21.4043 20.9467 21.6104 20.8122 21.763C20.6777 21.9161 20.4937 22 20.2951 22H20.2888ZM10.4997 1.47826C7.95107 1.47826 5.87792 3.64304 5.87792 6.30435C5.87792 8.96565 7.95107 11.1304 10.4997 11.1304C13.0484 11.1304 15.1216 8.96565 15.1216 6.30435C15.1216 3.64304 13.048 1.47826 10.4997 1.47826Z" fill="#6B7185"/>
</svg>
