<svg width="23" height="22" viewBox="0 0 23 22" fill="none" xmlns="http://www.w3.org/2000/svg">
<path d="M16.72 10.5601C13.566 10.5601 11 13.126 11 16.2801C11 19.4341 13.566 22.0001 16.72 22.0001C19.874 22.0001 22.44 19.4341 22.44 16.2801C22.44 13.126 19.874 10.5601 16.72 10.5601ZM19.2225 16.7567H17.1966V18.7826C17.1966 19.0458 16.9832 19.2592 16.72 19.2592C16.4568 19.2592 16.2434 19.0458 16.2434 18.7826V16.7567H14.2175C13.9543 16.7567 13.7409 16.5433 13.7409 16.2801C13.7409 16.0168 13.9543 15.8035 14.2175 15.8035H16.2434V13.7776C16.2434 13.5143 16.4568 13.301 16.72 13.301C16.9832 13.301 17.1966 13.5143 17.1966 13.7776V15.8035H19.2225C19.4857 15.8035 19.6991 16.0168 19.6991 16.2801C19.6991 16.5433 19.4857 16.7567 19.2225 16.7567Z" fill="#6B7185"/>
<path d="M17.5355 10.9639V0H2.83293C1.27059 0 0 1.2332 0 2.79555V19.2509H0.01375C0.156836 20.7904 1.45578 22 3.0323 22H16.4059C19.4906 22 22 19.528 22 16.4433C22 13.7457 20.0806 11.4877 17.5355 10.9639ZM16.2443 10.8518C13.4041 10.9325 11.0877 13.1411 10.835 15.9358H5.18418V1.25383H16.2443V10.8518ZM2.83293 1.25383H3.89297V15.9358H3.0323C2.38477 15.9358 1.78449 16.1408 1.29121 16.488V2.79512C1.29121 1.9452 1.98258 1.25383 2.83293 1.25383ZM3.0323 20.7088C2.05906 20.7088 1.26973 19.9061 1.29164 18.9277C1.31313 17.976 2.11492 17.2266 3.06668 17.2266H10.8651C10.8659 17.2266 10.8668 17.2275 10.8672 17.2283C10.9209 17.6082 11.0125 17.9755 11.1388 18.327C11.1392 18.3283 11.1384 18.3296 11.1366 18.3296H3.91746C3.56082 18.3296 3.27207 18.6188 3.27207 18.975C3.27207 19.3316 3.56125 19.6204 3.91746 19.6204H11.8039C11.8048 19.6204 11.8052 19.6208 11.8057 19.6213C12.0845 20.0234 12.415 20.3878 12.7871 20.7041C12.7884 20.7054 12.7875 20.7075 12.7858 20.7075L3.0323 20.7088ZM16.4059 20.7462C14.0332 20.7462 12.103 18.816 12.103 16.4433C12.103 14.0705 14.0332 12.1404 16.4059 12.1404C18.7786 12.1404 20.7088 14.0705 20.7088 16.4433C20.7088 18.816 18.7786 20.7462 16.4059 20.7462Z" fill="#6B7185"/>
</svg>
